<svg width="640" height="640" xmlns="http://www.w3.org/2000/svg">
 <!-- Created with Method Draw - http://github.com/duopixel/Method-Draw/ -->
 <g>
  <title>background</title>
  <rect fill="none" id="canvas_background" height="642" width="642" y="-1" x="-1"/>
 </g>
 <g>
  <title>Layer 1</title>
  <rect x="-811.997131" id="svg_1" height="639.999949" width="640" y="-211.999252" stroke-opacity="null" stroke-width="0" stroke="#000" fill="#4c8cf5"/>
  <rect y="-651.997742" id="svg_3" height="640" width="640" x="-551.998047" stroke-opacity="null" stroke-width="0" stroke="#000" fill="#17a05d"/>
  <rect id="svg_4" height="0" width="9.999999" y="391.666636" x="1031.666636" fill-opacity="null" stroke-opacity="null" stroke-width="0" stroke="#000" fill="#d34c25"/>
  <rect y="0" id="svg_5" height="640" width="640" x="0.004517" stroke-opacity="null" stroke-width="0" stroke="#000" fill="#dd4e41"/>
  <rect id="svg_6" height="640" width="640" x="1920" stroke-opacity="null" stroke-width="0" stroke="#000" fill="#ffce44"/>
  <line stroke-linecap="null" stroke-linejoin="null" id="svg_11" y2="855.001548" x2="1811.66823" y1="855.001548" x1="1815.001573" stroke-opacity="null" stroke="#000" fill="none"/>
  <path id="svg_13" d="m-473.730319,279.812968c-6.470997,14.547351 -11.00172,22.183387 -33.014281,29.809764c-3.889793,2.078523 1.290729,6.930905 3.889793,6.235026c19.413497,-8.313277 23.944094,-15.253162 33.014281,-30.505915c4.530724,19.418916 14.882773,31.897538 32.36461,39.523915l1.299469,-4.166026c23.95296,13.870654 42.075729,16.645193 57.608299,13.174911c14.891513,-3.47001 32.36461,-6.234754 46.615192,-4.15623c-9.061447,-7.627057 -14.250582,-16.645057 -16.182368,-27.732057c14.8829,-16.644513 44.016255,-10.400508 58.258097,-20.105544l-3.239995,-7.6359c31.073881,-11.087136 57.617039,-29.114293 94.512373,-23.565759l-60.848294,-47.1507l1.290729,-6.244413c-18.122768,-14.556874 -38.835734,-18.027157 -62.147636,-8.312869c7.770592,-24.271298 0,-50.611731 21.371376,-69.334087c-5.180395,-10.40078 0,-24.95779 9.061447,-38.1327c1.299595,-24.957654 7.761852,-47.146075 19.413497,-67.251755c-18.772439,13.174911 -37.536265,24.957654 -56.958502,35.363195l-3.239995,-7.631138c-7.761852,13.179264 -18.772566,22.884164 -33.664079,28.423039l-2.590197,-7.626377c-20.072034,21.497167 -44.016255,32.584167 -58.907895,63.795213c4.530724,-30.515167 -3.889666,-60.325203 -15.541184,-84.591875l-4.530724,4.857008c-8.41165,-29.814662 -38.186063,-49.228952 -56.958502,-73.495488c7.761852,66.559956 -14.90038,74.877859 -14.241969,111.628188l-7.779332,0.68622c11.010587,37.446072 -3.881053,54.777349 3.239995,80.431019c-18.122768,-9.705036 -41.434798,-2.774403 -56.967368,-18.027293c18.772439,31.897947 25.252429,70.716867 56.967368,97.06628l-4.530724,2.078523c11.651518,13.861131 26.543158,25.653669 52.436518,32.593826z" stroke-opacity="null" stroke-width="0" stroke="#000" fill="#ffffff"/>
  <path stroke="#000" id="svg_14" d="m-94.106574,-406.416757l-42.838735,-26.801928c-10.808349,-6.755576 -25.050226,-3.504118 -31.860604,7.256923l-16.885167,26.751917l81.952313,51.23645l16.898484,-26.739499c6.784532,-10.773851 3.546524,-24.96334 -7.266291,-31.703863l0,0zm-237.41893,238.331313l81.956779,51.235923l133.575963,-211.667336l-81.995793,-51.2493l-133.536962,211.6807l0.000014,0.000014zm-12.518882,65.097148l-1.810132,48.125023l42.773019,-22.520318l39.748286,-20.890771l-79.06633,-49.460196l-1.64483,44.746275l0,0l-0.000014,-0.000014z" stroke-opacity="null" stroke-width="0" fill="#e5e5e5"/>
  <path stroke="#000" id="svg_15" d="m128.549023,259.282024l0,0c0,-16.550191 18.673398,-29.96677 41.708198,-29.96677l18.958282,0l0,0l90.999726,0l170.624439,0c11.06173,0 21.670367,3.157198 29.492189,8.777062c7.821774,5.619864 12.216034,13.242033 12.216034,21.189708l0,74.916934l0,0l0,44.950147l0,0c0,16.5502 -18.673386,29.96677 -41.70821,29.96677l-170.624439,0l-118.879913,76.198533l27.880187,-76.198533l-18.958282,0c-23.0348,0 -41.708198,-13.41657 -41.708198,-29.96677l0,0l0,-44.950147l0,0l-0.000012,-74.916934z" fill-opacity="null" stroke-opacity="null" stroke-width="0" fill="#ffffff"/>
  <path id="svg_17" d="m-72.897118,1042.252793c-0.088369,-0.023442 -0.139563,-0.119819 -0.133525,-0.207249c-0.002262,-0.1142 0.008274,-0.234367 -0.046335,-0.339372c-0.031127,-0.078401 -0.084151,-0.147623 -0.106279,-0.229325c-0.027536,-0.126756 0.006477,-0.270421 0.108959,-0.355517c0.115576,-0.099034 0.300141,-0.111941 0.427367,-0.027769c0.089733,0.06181 0.154478,0.163755 0.152073,0.275001c0.010529,0.083126 -0.022278,0.161312 -0.060872,0.232773c-0.027651,0.057538 -0.059943,0.113841 -0.085041,0.17202c-0.006616,0.119289 -0.002822,0.239672 -0.020768,0.357934c-0.029895,0.09164 -0.142558,0.153946 -0.235578,0.121505l0,0zm0.233395,-0.21329c-0.052444,-0.028269 -0.127807,-0.00989 -0.188766,-0.015976c-0.049795,0.00996 -0.138276,-0.020428 -0.164749,0.025155c0.06054,0.023682 0.131688,0.00593 0.196139,0.009848c0.05157,-0.004953 0.110903,0.004697 0.157375,-0.019027l0,0zm-0.003928,-0.053194c0.007718,-0.07182 -0.105854,-0.035172 -0.151992,-0.045863c-0.061066,0.01236 -0.158247,-0.026457 -0.196652,0.028724c0.022758,0.055454 0.124253,0.016454 0.177549,0.028757c0.056835,-0.002014 0.1158,0.002037 0.171095,-0.011619l0,0zm0.000707,-0.125835c0.014993,-0.139908 0.100536,-0.256398 0.15007,-0.384378c0.040726,-0.153229 -0.03993,-0.328285 -0.185958,-0.392604c-0.145348,-0.072036 -0.338998,-0.017617 -0.421139,0.123536c-0.079143,0.116596 -0.064039,0.275017 0.013313,0.388406c0.055193,0.099096 0.099229,0.210458 0.092055,0.325783c0.114568,0 0.229136,0 0.343704,0c0.002652,-0.020247 0.005303,-0.040496 0.007955,-0.060742zm-0.253634,-0.198211c-0.045392,-0.078926 -0.091991,-0.158461 -0.1236,-0.243997c0.028418,-0.036786 0.036686,-0.077763 0.045514,-0.120985c0.079762,-0.015667 -0.010153,0.090896 0.065154,0.093297c0.066846,0.029084 0.037522,-0.141126 0.093059,-0.079773c-0.039866,0.067334 0.078308,0.134319 0.082645,0.037994c-0.005729,-0.07273 0.071428,-0.059103 0.041346,0.006878c0.002483,0.033942 0.057745,0.043672 0.058691,0.070971c-0.039783,0.086293 -0.074363,0.175383 -0.121471,0.257994c-0.010603,-0.031985 0.041704,-0.112148 0.058418,-0.159217c0.032252,-0.040687 0.059967,-0.150334 -0.024113,-0.135388c-0.048774,0.076075 -0.114385,-0.047953 -0.162142,0.024953c-0.04054,0.012093 -0.104301,-0.07021 -0.116061,0.008926c0.030533,0.093993 0.094066,0.174098 0.127307,0.267121c-0.01128,-0.00665 -0.017703,-0.018318 -0.024749,-0.028773l0,0zm-0.063713,-0.344472c-0.022073,-0.010773 0.009304,0.057271 0,0l0,0zm0.131931,0.008037c-0.028653,-0.048492 -0.013286,0.058836 0,0zm0.127878,0c-0.028653,-0.048492 -0.013286,0.058836 0,0zm-0.595333,-0.358316c-0.050644,-0.051399 -0.106625,-0.099628 -0.150668,-0.156284c0.11003,0.091081 0.21074,0.193657 0.309898,0.29649c0.026331,0.036182 -0.045936,-0.033789 -0.059386,-0.045517c-0.033653,-0.031167 -0.066866,-0.062809 -0.099844,-0.094689l0,0zm0.782044,0.146955c0.085601,-0.106658 0.165468,-0.218474 0.257758,-0.319451c-0.015454,0.043475 -0.065201,0.095497 -0.09648,0.140273c-0.052236,0.064987 -0.101063,0.133699 -0.160795,0.191966c-0.007455,0.00788 -0.018588,-0.010785 -0.000482,-0.012788l-0.000001,0l0,0zm-0.185413,-0.101185c0.029576,-0.084595 0.072476,-0.16512 0.120337,-0.240831c-0.001112,0.042001 -0.051873,0.121606 -0.076271,0.173685c-0.013802,0.020957 -0.025444,0.054379 -0.044066,0.067146zm-0.378746,-0.10849c-0.020602,-0.030051 -0.08262,-0.100025 -0.071041,-0.109567c0.059794,0.066297 0.120608,0.134725 0.163561,0.213127c-0.036579,-0.028054 -0.062898,-0.068574 -0.09252,-0.103559l0,0zm0.236781,-0.023651c-0.00417,-0.028222 0.008774,-0.162949 0.015965,-0.071467c0.000026,0.057318 0.006008,0.121844 -0.009946,0.174014c-0.006832,-0.033541 -0.005174,-0.06846 -0.006019,-0.102547z" fill-opacity="null" stroke-opacity="null" stroke-width="null" stroke="#000" fill="#ffffff"/>
  <path stroke="#000" id="svg_20" d="m2208.238745,444.817083c-34.354291,-12.534442 -58.978309,-52.362385 -53.382259,-86.342833c3.528701,-21.427252 77.9754,-151.505612 84.476954,-147.603991c2.12202,1.273431 21.005353,31.600154 41.962961,67.392732c33.571883,57.335933 38.104719,68.027312 38.104719,89.875753c0,44.285889 -36.501619,80.561055 -80.329377,79.831047c-12.789558,-0.213056 -26.664415,-1.63177 -30.832999,-3.1527l0,-0.000008zm34.419118,-22.274173c1.137142,-5.733449 -1.519163,-8.529628 -8.103035,-8.529628c-15.005319,0 -35.820132,-18.453348 -40.47048,-35.879026c-4.960656,-18.588468 -18.113567,-20.799191 -20.056323,-3.371028c-3.742987,33.577837 62.324017,79.57325 68.62983,47.779682l0.000008,0z" fill-opacity="null" stroke-opacity="null" stroke-width="0" fill="#ffffff"/>
 </g>
</svg>